PathFileType	4	(X/Y/Z)	/Users/niels/Desktop/University/Third Semester/Perception and Action/Exam/Gymnastics Motion Tracking/Code for Gym Tracking/Analyzed Data/Webcam_Backflip/id8_2_pure_Sports2D/id8_2_pure_Sports2D_px_person00.trc
DataRate	CameraRate	NumFrames	NumMarkers	Units	OrigDataRate	OrigDataStartFrame	OrigNumFrames
29.8125	29.8125	8	22	m	29.8125	120	160
Frame#	Time	Hip			RHip			RKnee			RAnkle			RBigToe			RSmallToe			RHeel			LHip			LKnee			LAnkle			LBigToe			LSmallToe			LHeel			Neck			Head			Nose			RShoulder			RElbow			RWrist			LShoulder			LElbow			LWrist		
		X1	Y1	Z1	X2	Y2	Z2	X3	Y3	Z3	X4	Y4	Z4	X5	Y5	Z5	X6	Y6	Z6	X7	Y7	Z7	X8	Y8	Z8	X9	Y9	Z9	X10	Y10	Z10	X11	Y11	Z11	X12	Y12	Z12	X13	Y13	Z13	X14	Y14	Z14	X15	Y15	Z15	X16	Y16	Z16	X17	Y17	Z17	X18	Y18	Z18	X19	Y19	Z19	X20	Y20	Z20	X21	Y21	Z21	X22	Y22	Z22
120	4.025157232704402	0.9116809076892967	-0.5990588697934286	0.0	0.9066914993503865	-0.6003409163719144	0.0	0.9104912370518441	-0.6914438811639707	0.0	0.9108357950685554	-0.789149477134538	0.0	0.9325255389957147	-0.8028182496616111	0.0	0.925668984198139	-0.8063832699951994	0.0	0.907172885356732	-0.8021154371725854	0.0	0.9163489404387549	-0.598777391863676	0.0	0.9067677992822301	-0.6898705814770767	0.0	0.8701208720688326	-0.7749951419384735	0.0	0.9008377817381376	-0.7936514617181413	0.0	0.8953806125656164	-0.7913719904613035	0.0	0.8603827520892222	-0.7878352738794042	0.0	0.9186551599554531	-0.4622853464327583	0.0	0.9303658085377704	-0.40327253012265507	0.0	0.9454869550639821	-0.4337451313542793	0.0	0.9014281239610903	-0.4807244322840837	0.0	0.8867192367651869	-0.5422216288476811	0.0	0.901643807420288	-0.6009051159899613	0.0	0.9239037637566496	-0.4833054334638363	0.0	0.9349858615246996	-0.5384049798234593	0.0	0.9688703264160095	-0.581232401619254	0.0
121	4.058700209643606	0.9131036442057311	-0.6039798622737396	0.0	0.9078179150510448	-0.6056742394820206	0.0	0.9104873330602555	-0.6965037712861566	0.0	0.9101341811955354	-0.793625186080996	0.0	0.9299658111094633	-0.8068635202466637	0.0	0.9222159622907617	-0.8102001324200684	0.0	0.9061964915334061	-0.8062099239260804	0.0	0.9183842448313526	-0.6041231914246863	0.0	0.9127108831332794	-0.6946806293976446	0.0	0.8707071708636633	-0.7776493220407363	0.0	0.9003323844751402	-0.7974237267537799	0.0	0.8951888835578724	-0.794974189231499	0.0	0.8601429785964831	-0.7899054414125193	0.0	0.9196582442933854	-0.4672069255188891	0.0	0.9307326723756648	-0.4081749047703413	0.0	0.9465045401115019	-0.438529284754342	0.0	0.9026640521510756	-0.4859329686606526	0.0	0.8896175115135887	-0.5476991408270006	0.0	0.9036535702365497	-0.6057116766453646	0.0	0.9250803856885297	-0.48830092468502123	0.0	0.9350964586886459	-0.5447697823448604	0.0	0.9688548682024204	-0.5874092610049881	0.0
122	4.092243186582809	0.9145735707937647	-0.6062820087484606	0.0	0.908499194516271	-0.6081830835202752	0.0	0.910479467101432	-0.6993853750210736	0.0	0.9095782739535252	-0.7959021835102817	0.0	0.9287658521632255	-0.808736476777063	0.0	0.9198222395219635	-0.8117589192502986	0.0	0.9053221566835751	-0.8080829199561966	0.0	0.9208075770946668	-0.6067296408329693	0.0	0.920797551201577	-0.6970246390902485	0.0	0.8722643269742236	-0.7777716217999556	0.0	0.8999344355386499	-0.7993327482966686	0.0	0.8952853097374587	-0.7968028307428203	0.0	0.8606614703764704	-0.7892237618563007	0.0	0.9206089631079527	-0.47012058488487996	0.0	0.930951281476891	-0.41080371408925503	0.0	0.9475185268863474	-0.4412109997606517	0.0	0.9038515994974036	-0.48896663459307094	0.0	0.8925964661429159	-0.5512203592519734	0.0	0.9058419984050662	-0.6081177792489366	0.0	0.9263718941376547	-0.4909950039481811	0.0	0.9342220151940202	-0.5491136348243132	0.0	0.9662746783330401	-0.5923592783180971	0.0
123	4.125786163522012	0.9160912407845941	-0.60587495922877	0.0	0.908792227489354	-0.6076753003872903	0.0	0.9104955363750983	-0.6999613293733566	0.0	0.9092425162402101	-0.7957627981195754	0.0	0.9288405757089455	-0.8084040425669304	0.0	0.9186411049151844	-0.8110831837508158	0.0	0.904726926673114	-0.8076826871404633	0.0	0.9235213335228527	-0.6063750856013799	0.0	0.9301865521081358	-0.6966414421547931	0.0	0.8749855254479135	-0.7751712994410251	0.0	0.9003315360426719	-0.7992250489443157	0.0	0.8961760211690368	-0.7966405250592974	0.0	0.8623277487500003	-0.7857351768320195	0.0	0.9215486447417011	-0.47083895379049895	0.0	0.9311601011692526	-0.41098070658057306	0.0	0.9485325533137211	-0.4415993206658301	0.0	0.9049653228388657	-0.48965205151718805	0.0	0.8954595839984005	-0.5526739252420203	0.0	0.9082496068943167	-0.6083514385124152	0.0	0.9278222711802571	-0.49123040742352553	0.0	0.9325625450535869	-0.5509223882517156	0.0	0.9613778027958494	-0.595618795923306	0.0
124	4.159329140461216	0.9176490171572517	-0.603007976246793	0.0	0.9088661082216184	-0.6043781762013756	0.0	0.9106076302743582	-0.6983347175412742	0.0	0.909156847164398	-0.7933955014770356	0.0	0.9302237864401152	-0.8061626861457595	0.0	0.9188739815828022	-0.8085288757451158	0.0	0.9044712376070296	-0.8052756846400677	0.0	0.9263023771531943	-0.6032203167209375	0.0	0.9397347399329616	-0.6936229446923897	0.0	0.8790772890557678	-0.7702013605335153	0.0	0.9024385990220679	-0.7971627159143844	0.0	0.8985328507751893	-0.7944682739183554	0.0	0.865611405359704	-0.7800022746290288	0.0	0.9225470750485979	-0.46940181053545726	0.0	0.9315190303390034	-0.40886439532002894	0.0	0.9495669227148346	-0.4397581510499631	0.0	0.906032525032764	-0.48810085519233093	0.0	0.8980029162261051	-0.5520663606946795	0.0	0.9108514325888275	-0.606799624843902	0.0	0.9294501156980217	-0.48917720590998914	0.0	0.9303780651974061	-0.550038040940676	0.0	0.9548745629878824	-0.5968150990367851	0.0
125	4.192872117400419	0.9192250329726906	-0.5982070459391573	0.0	0.9089428300247947	-0.5989200311805352	0.0	0.9108770434825642	-0.6948516361720457	0.0	0.909322053241706	-0.7893200143911172	0.0	0.9329525574560525	-0.8024836732920818	0.0	0.9206774904006008	-0.804617603462101	0.0	0.9044723879305889	-0.8013502524640487	0.0	0.9289123037681785	-0.5978292574001616	0.0	0.9484235497458031	-0.6884448902995215	0.0	0.8847085860114109	-0.7636998641753964	0.0	0.9071759396435798	-0.7933311357614861	0.0	0.9030989787477858	-0.7904319675618113	0.0	0.8708802237673343	-0.7731213991108895	0.0	0.9236835561426475	-0.4660900049406326	0.0	0.9321666471220638	-0.4048894306479412	0.0	0.9506391490477489	-0.4360142544564344	0.0	0.9071239575051928	-0.48469441274847147	0.0	0.9000925605559704	-0.5495319954720006	0.0	0.9135135203771745	-0.603804168078117	0.0	0.9312145064315579	-0.48529991138311546	0.0	0.9280756689734556	-0.5467417723704332	0.0	0.9480111562657672	-0.5957959341873194	0.0
126	4.226415094339622	0.9207258442233913	-0.5922100576452227	0.0	0.9091898944074783	-0.5922164654163209	0.0	0.9113195891482426	-0.6901038561589987	0.0	0.9097081608258581	-0.7842682146306498	0.0	0.936872068942329	-0.7979248596300563	0.0	0.9239791363988129	-0.7999557862314889	0.0	0.9045755083704443	-0.7965582518904092	0.0	0.9311695804509031	-0.5910938786970891	0.0	0.9556300195055614	-0.6818648815747437	0.0	0.8919300684016925	-0.7568581131050965	0.0	0.9151560909210825	-0.7882122148584805	0.0	0.9105306634300929	-0.7850086226321755	0.0	0.878262394246173	-0.7664440652250933	0.0	0.9249996938009483	-0.4613938977070692	0.0	0.9331692031684653	-0.3996958879163789	0.0	0.9517746181726495	-0.4309491030487118	0.0	0.9083086142881446	-0.47998492949188104	0.0	0.9017030247099678	-0.54543748619598	0.0	0.9161289959859361	-0.5997264222342255	0.0	0.9330207171845611	-0.48025998296426625	0.0	0.9262248827638621	-0.5417788080358702	0.0	0.9424004323996505	-0.5927323864157428	0.0
127	4.259958071278826	0.9219989500627902	-0.5858140100406592	0.0	0.9096385944078877	-0.5852046375255127	0.0	0.9119058056176944	-0.6848018101210677	0.0	0.9102229676313464	-0.7789961584601636	0.0	0.9414655045510443	-0.7930780182492976	0.0	0.9282539491683635	-0.7951545194357054	0.0	0.9046272527584679	-0.7915836586706144	0.0	0.932989856494884	-0.5839863006746979	0.0	0.96119847671534	-0.6747499929689115	0.0	0.9006791114275321	-0.7508859333823376	0.0	0.9262524423650669	-0.7826851399294198	0.0	0.9210426781591053	-0.7790736240972523	0.0	0.8876677019955068	-0.761120666464469	0.0	0.9264732096214572	-0.4559422543189543	0.0	0.9344775440503948	-0.39401962462928264	0.0	0.9530010138517767	-0.42528520692564276	0.0	0.9096187943162878	-0.4745757968949555	0.0	0.9029021350942683	-0.5403903350868001	0.0	0.91872369039276	-0.5950276216323522	0.0	0.9347757487716959	-0.47477993808822216	0.0	0.9253751353847168	-0.5361465796543541	0.0	0.9394443634177796	-0.5881027834392738	0.0
